<svg width="191" height="230" viewBox="0 0 191 230" fill="none" xmlns="http://www.w3.org/2000/svg">
  <path d="M0 166.658C0 156.306 2.85455 146.722 8.56365 137.908C14.3747 129.093 24.9773 119.305 40.3715 108.543C33.7449 99.6257 28.5455 91.2723 24.7734 83.4826C21.0013 75.5905 19.1153 67.3908 19.1153 58.8837C19.1153 41.4594 24.5695 27.3151 35.478 16.4505C46.4884 5.48351 61.2709 0 79.8255 0C96.443 0 110.053 4.97103 120.656 14.9131C131.36 24.8552 136.713 37.2571 136.713 52.119C136.713 69.9532 127.741 85.6863 109.798 99.3182L92.6709 111.771L131.054 156.664C137.069 144.775 140.077 131.656 140.077 117.306H177.696C177.696 146.415 171.018 169.989 157.663 188.028L191 226.925H140.841L129.372 213.703C112.959 224.568 94.0982 230 72.791 230C50.7702 230 33.1332 224.209 19.8799 212.627C6.62663 200.943 0 185.619 0 166.658ZM74.9319 194.332C85.5346 194.332 95.5765 191.359 105.058 185.414L61.1689 134.372L57.9576 136.678C48.8842 144.467 44.3475 153.641 44.3475 164.198C44.3475 173.115 47.1511 180.392 52.7582 186.029C58.4673 191.564 65.8586 194.332 74.9319 194.332ZM58.7222 58.2687C58.7222 65.9559 63.2079 75.6417 72.1793 87.3262L83.9544 79.4853C89.9693 75.5905 94.0982 71.7981 96.3411 68.1083C98.6859 64.4184 99.8583 60.0111 99.8583 54.8864C99.8583 49.7616 97.9722 45.303 94.2002 41.5107C90.4281 37.7184 85.5855 35.8222 79.6725 35.8222C73.3517 35.8222 68.2543 37.8721 64.3803 41.9719C60.6082 46.0717 58.7222 51.504 58.7222 58.2687Z" fill="#232D42" fill-opacity="0.1"/>
</svg>